<svg xmlns="http://www.w3.org/2000/svg" viewBox="0 0 700 1000" x="100px" y="100px">
    <defs>
        <style>
            .cls-1{
                left: 250px;
                fill:#ffffff;
            }
        </style>
    </defs>
    <g>
        <path class="cls-1" d="M207.36,748.75c-0.82-0.18-1.63-0.42-2.46-0.52c-5.89-0.7-11.79-1.34-17.41-3.42
			c-6.02-2.22-11.02-5.85-15.04-10.84c-0.35-0.44-0.66-0.92-0.96-1.4c-0.07-0.12-0.03-0.31-0.06-0.85c0.96,0.09,1.87,0.15,2.78,0.27
			c12.5,1.68,25.05,2.58,37.66,2.33c29.99-0.6,58.58-7.15,85.68-20.14c22.23-10.66,42.14-24.77,60.73-40.82
			c7.63-6.58,15.11-13.36,22.35-20.37c6.19-5.99,11.75-12.59,16.66-19.72c3.32-4.81,7.07-9.34,10.26-14.23
			c7.1-10.87,13.14-22.31,16.73-34.86c1.33-4.67,2.02-9.53,2.93-14.32c0.15-0.79-0.09-1.65-0.15-2.47c-0.18-0.07-0.37-0.14-0.55-0.2
			c-0.57,0.51-1.2,0.97-1.7,1.55c-13.43,15.73-29.71,27.88-47.6,37.97c-31.7,17.89-65.73,28.69-101.81,32.99
			c-21.58,2.57-43.13,2.38-64.47-2.3c-4.28-0.94-8.47-2.25-12.7-3.43c-0.75-0.21-1.46-0.58-2.22-1.33c0.63-0.23,1.24-0.52,1.89-0.67
			c21.07-4.88,40.68-13.47,59.65-23.65c32.02-17.18,61.23-38.43,88.71-62.12c9.54-8.22,18.67-16.92,27.97-25.41
			c0.76-0.69,1.41-1.49,2.12-2.25c-0.08-0.19-0.17-0.39-0.25-0.58c-0.7,0.16-1.44,0.24-2.11,0.49c-19.43,7.24-39.21,13.36-59.27,18.6
			c-18.72,4.89-37.64,8.81-56.74,11.91c-20.39,3.31-40.89,5.4-61.54,6.12c-22.08,0.77-44.02-0.19-65.71-4.61
			c-13.92-2.84-27.35-7.15-39.6-14.6c-9.83-5.98-18.02-13.58-23.54-23.83c-0.35-0.64-0.66-1.31-0.94-1.98
			c-0.08-0.2-0.01-0.46-0.01-0.99c1.2,0.12,2.31,0.19,3.4,0.36c16.78,2.59,33.64,2.83,50.55,1.88c34.7-1.94,68.32-9.51,101.44-19.6
			c32.55-9.91,64.04-22.57,94.81-37.07c5.22-2.46,10.35-5.1,15.51-7.68c0.68-0.34,1.31-0.8,1.96-1.21c-0.05-0.2-0.09-0.39-0.14-0.59
			c-1.08-0.06-2.16-0.17-3.24-0.16c-20.63,0.15-41.26,0.59-61.89,0.4c-23.71-0.22-47.4-1.37-71.02-3.68
			c-20.71-2.03-41.3-4.86-61.62-9.44c-20.43-4.6-40.34-10.75-58.95-20.63C61,402.9,46.72,391.57,36.19,375.97
			c-2.9-4.3-5.33-8.93-7.95-13.42c-0.35-0.61-0.55-1.31-0.93-2.26c0.69,0.1,1.09,0.08,1.42,0.23c12.46,5.69,25.66,8.73,39.07,10.98
			c15.88,2.67,31.89,4.03,47.96,5c22.64,1.36,45.29,1.64,67.95,1.23c16.4-0.3,32.79-0.98,49.18-1.74
			c14.36-0.66,28.71-1.46,43.04-2.57c18.7-1.45,37.38-3.26,56.06-4.94c1.08-0.1,2.15-0.36,3.23-0.55c0-0.24,0.01-0.48,0.01-0.71
			c-0.81-0.14-1.62-0.32-2.44-0.4c-23.05-2.32-45.97-5.5-68.66-10.22c-27.49-5.71-54.45-13.29-80.47-23.97
			c-22.79-9.36-44.46-20.78-64.15-35.71c-15.65-11.87-29.59-25.43-40.33-42.03c-6.82-10.54-12.11-21.76-13.94-34.33
			c-0.38-2.64-0.32-5.35-0.39-8.03c-0.02-0.6,0.23-1.22,0.43-2.14c0.78,0.41,1.37,0.61,1.84,0.98c24.9,19.29,53.01,32.44,82.4,43.11
			c36.71,13.33,74.59,22.06,113,28.69c26.51,4.57,53.18,7.89,79.96,10.34c3.4,0.31,6.79,0.62,10.19,0.9
			c0.75,0.06,1.51,0.01,2.26,0.01c0.06-0.23,0.13-0.47,0.19-0.7c-0.92-0.56-1.81-1.16-2.75-1.67
			c-20.03-10.79-40.22-21.29-60.06-32.42c-25.32-14.2-49.9-29.62-73.21-46.98c-19.61-14.6-38.09-30.47-53.97-49.18
			c-11.39-13.41-21.01-27.94-27.41-44.45c-7.16-18.47-9.34-37.48-6.01-57.07c0.16-0.91,0.47-1.8,0.83-3.17
			c1.06,1.01,1.78,1.62,2.43,2.31c22.17,23.74,46.87,44.56,73,63.76c22.75,16.72,46.47,31.96,70.76,46.32
			c25.62,15.14,51.78,29.3,78.58,42.22c23.2,11.19,46.69,21.77,70.13,32.44c12.2,5.55,24.49,10.92,36.89,16.02
			c9.26,3.81,13.14,10.88,13.63,20.34c0.37,7.08-1.11,13.92-3.14,20.65c-3.45,11.45-8.86,22.01-14.64,32.41
			c-9.24,16.65-16.73,34.01-20.95,52.67c-3.83,16.9-4.58,33.83-0.21,50.77c3.5,13.57,10,25.54,19.14,36.11
			c11.81,13.66,26.4,23.52,42.56,31.19c4.33,2.05,8.83,3.72,13.23,5.63c1.86,0.8,3.29,0.57,4.83-0.88
			c8.1-7.64,16.43-15.05,24.38-22.85c3.22-3.16,6.12-6.82,8.4-10.71c4.24-7.21,7.93-14.74,11.82-22.16c2.15-4.1,4.22-8.25,6.32-12.38
			c0.25-0.49,0.42-1.01,0.88-2.11c-1.32,0.43-2.19,0.64-3,0.99c-14.44,6.21-28.87,6.16-43.29-0.03c-0.52-0.22-1.03-0.47-1.53-0.75
			c-0.19-0.11-0.32-0.33-0.75-0.79c1.6-0.38,2.97-0.75,4.36-1.01c8.53-1.62,16.84-4.02,24.06-8.94c5.96-4.06,11.66-8.55,17.18-13.21
			c5.83-4.92,11.14-10.48,16.99-15.38c10.09-8.45,21.35-14.8,34.3-17.83c6.45-1.51,12.99-2.12,19.59-1.81
			c2.31,0.11,3.93-0.67,5.52-2.35c9.55-10.09,21.23-16.27,34.96-18.31c6.13-0.91,12.32-0.79,18.4,0.68c0.55,0.13,1.1,0.28,1.64,0.46
			c0.21,0.07,0.39,0.24,1.03,0.65c-1.18,0.41-2.03,0.72-2.89,1.01c-10.75,3.53-20.32,9.02-28.19,17.27c-0.67,0.7-1.28,1.47-1.88,2.24
			c-0.18,0.23-0.21,0.57-0.54,1.5c7.64-2.1,14.21-5.42,20.62-9.15c0.17,0.12,0.34,0.24,0.51,0.36c-0.17,0.8-0.14,1.7-0.53,2.37
			c-1.32,2.23-2.56,4.57-4.23,6.51c-2.86,3.32-5.9,6.52-9.09,9.52c-8.91,8.36-17.23,17.26-24.89,26.78
			c-16.15,20.08-26.73,42.89-32.42,67.91c-3.23,14.19-5.68,28.56-8.35,42.88c-2.84,15.21-6.12,30.31-10.75,45.09
			c-8.37,26.7-20.9,51.16-38.99,72.62c-14.11,16.74-30.6,30.73-48.99,42.53c-23.24,14.92-48.31,26.03-74.08,35.7
			c-27.72,10.4-56.1,18.69-84.64,26.47c-26.18,7.14-52.39,14.16-78.46,21.65c-18.6,5.34-36.76,12.01-54.2,20.51
			c-17.33,8.45-33.4,18.78-47.57,31.99c-18.81,17.53-32.57,38.53-42.83,61.98c-4.67,10.68-8.55,21.64-11.85,32.81
			c-0.22,0.74-0.5,1.46-1.08,2.14c-0.17-3.8-0.46-7.59-0.47-11.39c-0.05-11.48,0.41-22.93,1.99-34.33
			c2.14-15.38,7.47-29.6,15.22-42.98c1.71-2.96,3.33-5.96,4.97-8.96c0.38-0.69,0.65-1.44,0.97-2.16c-0.13-0.18-0.26-0.35-0.4-0.53
			c-1.03,0.47-2.1,0.87-3.08,1.43c-13.68,7.92-26.48,17.11-38.58,27.28c-23.55,19.79-44.17,42.24-61.19,67.91
			C19.6,943.8,8.33,967.24,2.02,992.91c-0.54,2.21-1.04,4.43-1.56,6.65c-0.01,0.06-0.11,0.11-0.46,0.44
			c0.77-5.27,1.41-10.24,2.24-15.19c4.74-28.22,13.42-55.14,26.72-80.52c10.21-19.48,22.66-37.4,37.18-53.9
			c19.08-21.67,40.91-40.19,64.59-56.6c19.47-13.5,39.89-25.4,60.98-36.16c4.41-2.25,8.86-4.44,13.28-6.68
			c0.84-0.43,1.64-0.95,2.46-1.42C207.41,749.28,207.38,749.01,207.36,748.75z M633.14,395.75c-0.13-0.14-0.21-0.32-0.34-0.36
			c-0.3-0.11-0.62-0.19-0.94-0.21c-8.19-0.62-15.89,0.79-22.38,6.17c-3.36,2.79-6.41,5.95-9.58,8.97c-0.36,0.34-0.53,0.88-0.78,1.32
			c0.98,0.06,1.68-0.28,2.41-0.51c2.61-0.83,5.2-1.86,7.87-2.37c2.53-0.48,5.16-0.44,7.74-0.59c3.86-0.23,7.43-1.31,10-4.3
			C629.34,401.32,631.16,398.46,633.14,395.75z"
        />
        <path class="cls-1" d="M329.04,0c0.73,1.29,1.18,1.95,1.51,2.66c11.66,25.63,25.91,49.77,41.69,73.03
			c17.28,25.48,36.25,49.65,56.31,72.97c14.27,16.59,29.09,32.66,44.26,48.43c24.08,25.03,49.23,48.95,75,72.22
			c10.86,9.81,21.61,19.74,32.63,29.36c6.48,5.66,8.27,12.59,6.83,20.67c-1.01,5.69-3.5,10.83-6.46,15.72
			c-6.53,10.83-14.99,20.03-24.31,28.47c-16.63,15.04-31.38,31.62-42.29,51.37c-7.43,13.44-12.71,27.67-14.58,42.97
			c-1.12,9.16,0.35,18.18,2.96,27c0.62,2.1,1.49,4.13,2.21,6.2c0.18,0.51,0.26,1.05,0.49,2.05c-1.09-0.45-1.83-0.68-2.5-1.03
			c-11.59-6.2-22.4-13.5-32.02-22.51c-15.13-14.17-22.48-31.67-22.91-52.35c-0.34-16.74,3.43-32.61,9.3-48.11
			c4.27-11.29,9.77-21.99,15.59-32.55c6.83-12.37,12.53-25.21,15.43-39.14c1.65-7.95,2.33-15.94,0.38-23.96
			c-2.12-8.74-6.82-15.78-14.79-19.97c-7.18-3.77-14.74-6.81-22.17-10.07c-13.91-6.11-27.87-12.12-41.77-18.25
			c-1.36-0.6-2.72-1.56-3.66-2.71c-14.15-17.21-28.24-34.48-41.19-52.64c-11.87-16.65-22.86-33.84-31.74-52.3
			c-7.94-16.51-14.09-33.62-16.55-51.88c-2.94-21.8-0.06-42.68,10.3-62.29C327.49,2.39,328.13,1.48,329.04,0z"
        />
    </g>
</svg>
